<svg xmlns="http://www.w3.org/2000/svg" viewBox="0 0 800 600">
  <defs>
    <linearGradient id="bg" x1="0%" y1="0%" x2="100%" y2="100%">
      <stop offset="0%" style="stop-color:#000044"/>
      <stop offset="100%" style="stop-color:#0000AA"/>
    </linearGradient>
  </defs>
  <rect width="800" height="600" fill="url(#bg)"/>
  <ellipse cx="400" cy="580" rx="320" ry="40" fill="rgba(255,255,255,0.05)"/>
  <g transform="translate(400,300)">
    <rect x="-175" y="-50" width="350" height="75" rx="15" fill="#000033"/>
    <rect x="-155" y="-60" width="270" height="55" rx="10" fill="#000066"/>
    <rect x="-195" y="-25" width="390" height="50" rx="8" fill="#000088"/>
    <rect x="-215" y="-15" width="430" height="35" rx="6" fill="#000044"/>
    <ellipse cx="-85" cy="38" rx="38" ry="38" fill="#000011"/>
    <ellipse cx="-85" cy="38" rx="26" ry="26" fill="#000033"/>
    <ellipse cx="-85" cy="38" rx="14" ry="14" fill="#0044FF"/>
    <ellipse cx="115" cy="38" rx="38" ry="38" fill="#000011"/>
    <ellipse cx="115" cy="38" rx="26" ry="26" fill="#000033"/>
    <ellipse cx="115" cy="38" rx="14" ry="14" fill="#0044FF"/>
  </g>
  <text x="400" y="520" text-anchor="middle" font-family="Georgia,serif" font-size="42" font-weight="bold" fill="#4488FF" opacity="0.9">BMW M3 E30</text>
  <text x="400" y="555" text-anchor="middle" font-family="sans-serif" font-size="18" fill="#6699FF" opacity="0.6">1986 · 1:18 · Kyosho</text>
</svg>