<svg xmlns="http://www.w3.org/2000/svg" viewBox="0 0 800 600">
  <defs>
    <linearGradient id="bg" x1="0%" y1="0%" x2="100%" y2="100%">
      <stop offset="0%" style="stop-color:#1a1a2e"/>
      <stop offset="100%" style="stop-color:#4a4a6a"/>
    </linearGradient>
  </defs>
  <rect width="800" height="600" fill="url(#bg)"/>
  <ellipse cx="400" cy="580" rx="320" ry="40" fill="rgba(255,255,255,0.05)"/>
  <g transform="translate(400,300)">
    <rect x="-170" y="-55" width="340" height="80" rx="15" fill="#C0C0C0"/>
    <rect x="-150" y="-65" width="260" height="60" rx="10" fill="#D4D4D4"/>
    <rect x="-190" y="-30" width="380" height="55" rx="8" fill="#B0B0B0"/>
    <rect x="-210" y="-20" width="420" height="38" rx="6" fill="#999"/>
    <rect x="-50" y="-85" width="80" height="25" rx="5" fill="#B0B0B0"/>
    <line x1="-50" y1="-70" x2="30" y2="-70" stroke="#D4D4D4" stroke-width="3" stroke-linecap="round"/>
    <line x1="-50" y1="-78" x2="30" y2="-78" stroke="#D4D4D4" stroke-width="2" stroke-linecap="round"/>
    <ellipse cx="-85" cy="38" rx="40" ry="40" fill="#333"/>
    <ellipse cx="-85" cy="38" rx="28" ry="28" fill="#555"/>
    <ellipse cx="-85" cy="38" rx="15" ry="15" fill="#777"/>
    <ellipse cx="115" cy="38" rx="40" ry="40" fill="#333"/>
    <ellipse cx="115" cy="38" rx="28" ry="28" fill="#555"/>
    <ellipse cx="115" cy="38" rx="15" ry="15" fill="#777"/>
  </g>
  <text x="400" y="520" text-anchor="middle" font-family="Georgia,serif" font-size="38" font-weight="bold" fill="#C0C0C0" opacity="0.9">Mercedes-Benz 300 SL</text>
  <text x="400" y="555" text-anchor="middle" font-family="sans-serif" font-size="18" fill="#aaa" opacity="0.6">1954 · 1:24 · Revell</text>
</svg>