<svg xmlns="http://www.w3.org/2000/svg" viewBox="0 0 800 600">
  <defs>
    <linearGradient id="bg" x1="0%" y1="0%" x2="100%" y2="100%">
      <stop offset="0%" style="stop-color:#006994"/>
      <stop offset="100%" style="stop-color:#00BFFF"/>
    </linearGradient>
  </defs>
  <rect width="800" height="600" fill="url(#bg)"/>
  <ellipse cx="400" cy="580" rx="320" ry="40" fill="rgba(0,0,0,0.1)"/>
  <g transform="translate(400,300)">
    <rect x="-160" y="-50" width="320" height="75" rx="20" fill="#005577"/>
    <rect x="-140" y="-60" width="240" height="55" rx="15" fill="#0077AA"/>
    <rect x="-180" y="-25" width="360" height="50" rx="12" fill="#006994"/>
    <rect x="-200" y="-15" width="400" height="35" rx="8" fill="#005577"/>
    <ellipse cx="-80" cy="38" rx="38" ry="38" fill="#003344"/>
    <ellipse cx="-80" cy="38" rx="26" ry="26" fill="#005577"/>
    <ellipse cx="-80" cy="38" rx="14" ry="14" fill="#00BFFF"/>
    <ellipse cx="100" cy="38" rx="38" ry="38" fill="#003344"/>
    <ellipse cx="100" cy="38" rx="26" ry="26" fill="#005577"/>
    <ellipse cx="100" cy="38" rx="14" ry="14" fill="#00BFFF"/>
  </g>
  <text x="400" y="520" text-anchor="middle" font-family="Georgia,serif" font-size="38" font-weight="bold" fill="white" opacity="0.9">Volkswagen Beetle</text>
  <text x="400" y="555" text-anchor="middle" font-family="sans-serif" font-size="18" fill="#88DDFF" opacity="0.6">1965 · 1:24 · Norev</text>
</svg>