<svg xmlns="http://www.w3.org/2000/svg" viewBox="0 0 800 600">
  <defs>
    <linearGradient id="bg" x1="0%" y1="0%" x2="100%" y2="100%">
      <stop offset="0%" style="stop-color:#111"/>
      <stop offset="100%" style="stop-color:#333"/>
    </linearGradient>
  </defs>
  <rect width="800" height="600" fill="url(#bg)"/>
  <ellipse cx="400" cy="580" rx="320" ry="40" fill="rgba(255,255,255,0.05)"/>
  <g transform="translate(400,300)">
    <rect x="-180" y="-55" width="360" height="85" rx="18" fill="#1a1a1a"/>
    <rect x="-160" y="-65" width="280" height="65" rx="12" fill="#222"/>
    <rect x="-200" y="-30" width="400" height="60" rx="10" fill="#2a2a2a"/>
    <rect x="-220" y="-20" width="440" height="40" rx="8" fill="#1a1a1a"/>
    <rect x="-60" y="-85" width="100" height="25" rx="4" fill="#2a2a2a"/>
    <ellipse cx="-90" cy="40" rx="42" ry="42" fill="#111"/>
    <ellipse cx="-90" cy="40" rx="30" ry="30" fill="#222"/>
    <ellipse cx="-90" cy="40" rx="16" ry="16" fill="#444"/>
    <ellipse cx="110" cy="40" rx="42" ry="42" fill="#111"/>
    <ellipse cx="110" cy="40" rx="30" ry="30" fill="#222"/>
    <ellipse cx="110" cy="40" rx="16" ry="16" fill="#444"/>
    <rect x="-70" y="-80" width="12" height="20" rx="3" fill="#FFD700"/>
    <rect x="60" y="-80" width="12" height="20" rx="3" fill="#FFD700"/>
  </g>
  <text x="400" y="520" text-anchor="middle" font-family="Georgia,serif" font-size="42" font-weight="bold" fill="#FFD700" opacity="0.9">Porsche 911 Turbo</text>
  <text x="400" y="550" text-anchor="middle" font-family="sans-serif" font-size="18" fill="#ccc" opacity="0.6">1975 · 1:18 · Minichamps</text>
</svg>