<svg xmlns="http://www.w3.org/2000/svg" viewBox="0 0 800 600">
  <defs>
    <linearGradient id="bg" x1="0%" y1="0%" x2="100%" y2="100%">
      <stop offset="0%" style="stop-color:#002211"/>
      <stop offset="100%" style="stop-color:#00AA55"/>
    </linearGradient>
  </defs>
  <rect width="800" height="600" fill="url(#bg)"/>
  <ellipse cx="400" cy="580" rx="320" ry="40" fill="rgba(0,0,0,0.15)"/>
  <g transform="translate(400,300)">
    <!-- Main body -->
    <rect x="-180" y="-55" width="360" height="85" rx="12" fill="#003322"/>
    <!-- Upper body -->
    <rect x="-160" y="-65" width="280" height="60" rx="8" fill="#006644"/>
    <!-- Roof -->
    <rect x="-100" y="-75" width="160" height="20" rx="6" fill="#008855"/>
    <!-- Windshield -->
    <rect x="-100" y="-72" width="155" height="14" rx="4" fill="#00FF88" opacity="0.2"/>
    <!-- Wheels -->
    <ellipse cx="-85" cy="42" rx="40" ry="40" fill="#001a11"/>
    <ellipse cx="-85" cy="42" rx="28" ry="28" fill="#003322"/>
    <ellipse cx="-85" cy="42" rx="15" ry="15" fill="#00AA55"/>
    <ellipse cx="115" cy="42" rx="40" ry="40" fill="#001a11"/>
    <ellipse cx="115" cy="42" rx="28" ry="28" fill="#003322"/>
    <ellipse cx="115" cy="42" rx="15" ry="15" fill="#00AA55"/>
  </g>
  <text x="400" y="520" text-anchor="middle" font-family="Georgia,serif" font-size="42" font-weight="bold" fill="#00FF88" opacity="0.9">Chevrolet Corvette</text>
  <text x="400" y="555" text-anchor="middle" font-family="sans-serif" font-size="18" fill="#88FFBB" opacity="0.6">1963 · 1:24 · Maisto</text>
</svg>