<svg xmlns="http://www.w3.org/2000/svg" viewBox="0 0 800 600">
  <defs>
    <linearGradient id="bg" x1="0%" y1="0%" x2="100%" y2="100%">
      <stop offset="0%" style="stop-color:#1a1a00"/>
      <stop offset="100%" style="stop-color:#FFD700"/>
    </linearGradient>
  </defs>
  <rect width="800" height="600" fill="url(#bg)"/>
  <ellipse cx="400" cy="580" rx="320" ry="40" fill="rgba(0,0,0,0.15)"/>
  <g transform="translate(400,300)">
    <rect x="-175" y="-55" width="350" height="85" rx="15" fill="#2a2a00"/>
    <rect x="-155" y="-65" width="270" height="65" rx="10" fill="#3a3a00"/>
    <rect x="-195" y="-30" width="390" height="58" rx="8" fill="#4a4a00"/>
    <rect x="-215" y="-20" width="430" height="38" rx="6" fill="#2a2a00"/>
    <polygon points="-50,-90 30,-90 20,-70 -40,-70" fill="#3a3a00"/>
    <ellipse cx="-90" cy="42" rx="42" ry="42" fill="#1a1a00"/>
    <ellipse cx="-90" cy="42" rx="30" ry="30" fill="#3a3a00"/>
    <ellipse cx="-90" cy="42" rx="16" ry="16" fill="#666"/>
    <ellipse cx="110" cy="42" rx="42" ry="42" fill="#1a1a00"/>
    <ellipse cx="110" cy="42" rx="30" ry="30" fill="#3a3a00"/>
    <ellipse cx="110" cy="42" rx="16" ry="16" fill="#666"/>
  </g>
  <text x="400" y="520" text-anchor="middle" font-family="Georgia,serif" font-size="36" font-weight="bold" fill="#FFD700" opacity="0.9">Lamborghini Countach</text>
  <text x="400" y="555" text-anchor="middle" font-family="sans-serif" font-size="18" fill="#ddd" opacity="0.6">1974 · 1:18 · Autoart</text>
</svg>